<svg xmlns="http://www.w3.org/2000/svg" xmlns:xlink="http://www.w3.org/1999/xlink" width="500" zoomAndPan="magnify" viewBox="0 0 375 374.999991" height="500" preserveAspectRatio="xMidYMid meet" version="1.0"><defs><g/><clipPath id="7d24f21ac6"><path d="M 101.359375 116 L 273.859375 116 L 273.859375 208.144531 L 101.359375 208.144531 Z M 101.359375 116 " clip-rule="nonzero"/></clipPath><clipPath id="4dbaf51814"><path d="M 109.136719 261.90625 L 121 261.90625 L 121 274.65625 L 109.136719 274.65625 Z M 109.136719 261.90625 " clip-rule="nonzero"/></clipPath><clipPath id="be039c6afc"><path d="M 253.980469 261.90625 L 265.980469 261.90625 L 265.980469 274.65625 L 253.980469 274.65625 Z M 253.980469 261.90625 " clip-rule="nonzero"/></clipPath></defs><rect x="-37.5" width="450" fill="#ffffff" y="-37.499999" height="449.999989" fill-opacity="1"/><rect x="-37.5" width="450" fill="#ebffe4" y="-37.499999" height="449.999989" fill-opacity="1"/><path fill="#d03531" d="M 193.339844 95.519531 C 193.546875 95.828125 193.71875 96.15625 193.890625 96.480469 C 194.148438 96.34375 194.40625 96.207031 194.683594 96.105469 C 194.75 96.070312 194.839844 96.035156 194.90625 96 C 196.457031 95.417969 198.042969 95.382812 199.921875 95.964844 C 202.007812 96.636719 203.644531 98.078125 204.574219 99.863281 C 205.507812 101.652344 205.746094 103.816406 205.09375 105.894531 C 204.058594 109.105469 201.578125 111.714844 198.335938 114 C 195.355469 116.128906 191.753906 117.96875 188.167969 119.824219 C 187.03125 120.40625 185.617188 119.960938 185.03125 118.828125 C 183.171875 115.253906 181.328125 111.683594 180.121094 108.210938 C 178.808594 104.484375 178.292969 100.914062 179.308594 97.699219 C 179.980469 95.621094 181.429688 93.992188 183.222656 93.0625 C 185.015625 92.136719 187.1875 91.894531 189.269531 92.546875 C 191.132812 93.183594 192.425781 94.128906 193.339844 95.519531 Z M 190.289062 100.722656 C 190.097656 99.554688 189.855469 98.679688 189.460938 98.078125 L 189.460938 98.0625 C 189.152344 97.582031 188.632812 97.238281 187.859375 96.996094 C 186.996094 96.722656 186.101562 96.824219 185.359375 97.21875 C 184.617188 97.597656 184.015625 98.269531 183.738281 99.125 C 183.066406 101.238281 183.515625 103.851562 184.515625 106.699219 C 185.394531 109.191406 186.703125 111.90625 188.097656 114.636719 C 190.824219 113.210938 193.460938 111.769531 195.632812 110.222656 C 198.09375 108.46875 199.972656 106.597656 200.644531 104.484375 C 200.921875 103.625 200.820312 102.734375 200.421875 101.996094 C 200.042969 101.257812 199.371094 100.65625 198.507812 100.378906 C 197.714844 100.121094 197.097656 100.121094 196.5625 100.328125 L 196.441406 100.378906 C 195.804688 100.65625 195.097656 101.257812 194.285156 102.082031 C 193.390625 103.007812 191.910156 103.027344 190.996094 102.132812 C 190.582031 101.753906 190.355469 101.238281 190.289062 100.722656 Z M 190.289062 100.722656 " fill-opacity="1" fill-rule="evenodd"/><g clip-path="url(#7d24f21ac6)"><path fill="#000000" d="M 255.140625 191.789062 C 254.589844 192.015625 254.019531 192.238281 253.433594 192.425781 C 254.726562 194.144531 255.96875 196.53125 256.277344 199.621094 C 256.398438 200.808594 255.519531 201.871094 254.332031 201.976562 C 253.140625 202.097656 252.074219 201.21875 251.96875 200.019531 C 251.644531 196.753906 249.867188 194.640625 248.695312 193.59375 C 247.78125 193.75 246.851562 193.851562 245.9375 193.902344 C 247.78125 195.773438 249.039062 197.9375 249.867188 200.789062 C 250.195312 201.90625 251.265625 202.835938 252.554688 203.332031 C 253.230469 203.589844 253.953125 203.710938 254.625 203.675781 C 255.210938 203.640625 255.777344 203.453125 256.226562 203.109375 C 256.984375 202.523438 257.554688 201.410156 257.640625 199.589844 C 257.898438 194.179688 256.089844 192.355469 255.140625 191.789062 Z M 258.347656 173.394531 C 257.8125 177.328125 256.625 182.84375 254.003906 187.546875 C 255.675781 186.808594 257.261719 185.882812 258.675781 184.765625 C 261.757812 182.34375 264.15625 178.101562 265.914062 173.480469 L 265.964844 173.359375 C 263.691406 173.480469 261.15625 173.5 258.347656 173.394531 Z M 236.476562 133.855469 C 234.253906 133.855469 232.445312 136.722656 232.445312 140.246094 C 232.445312 143.765625 234.253906 146.636719 236.476562 146.636719 C 238.699219 146.636719 240.507812 143.765625 240.507812 140.246094 C 240.507812 136.707031 238.699219 133.855469 236.476562 133.855469 Z M 245.871094 175.886719 C 244.679688 175.886719 243.714844 176.847656 243.714844 178.03125 C 243.714844 179.21875 244.679688 180.179688 245.871094 180.179688 C 247.058594 180.179688 248.023438 179.21875 248.023438 178.03125 C 248.023438 176.847656 247.058594 175.886719 245.871094 175.886719 Z M 239.890625 170.199219 C 238.699219 170.199219 237.734375 171.164062 237.734375 172.347656 C 237.734375 173.53125 238.699219 174.496094 239.890625 174.496094 C 241.078125 174.496094 242.042969 173.53125 242.042969 172.347656 C 242.042969 171.164062 241.078125 170.199219 239.890625 170.199219 Z M 237.90625 177.945312 C 236.71875 177.945312 235.753906 178.910156 235.753906 180.09375 C 235.753906 181.277344 236.71875 182.242188 237.90625 182.242188 C 239.097656 182.242188 240.0625 181.277344 240.0625 180.09375 C 240.0625 178.910156 239.097656 177.945312 237.90625 177.945312 Z M 217.65625 134.304688 C 215.433594 134.304688 213.625 137.171875 213.625 140.691406 C 213.625 144.214844 215.433594 147.082031 217.65625 147.082031 C 219.878906 147.082031 221.6875 144.230469 221.6875 140.691406 C 221.6875 137.152344 219.878906 134.304688 217.65625 134.304688 Z M 155.269531 152.285156 C 155.269531 152.304688 157.9375 158.574219 155.664062 159.65625 C 153.335938 160.769531 151.285156 157.128906 151.269531 157.128906 C 150.683594 156.082031 149.355469 155.722656 148.304688 156.324219 C 147.597656 156.71875 147.203125 157.4375 147.203125 158.195312 C 147.183594 158.640625 146.945312 161.492188 144.375 161.800781 C 142.167969 162.058594 142.308594 155.222656 142.308594 155.207031 C 142.324219 154.019531 141.375 153.023438 140.171875 153.007812 C 138.964844 152.988281 137.980469 153.933594 137.964844 155.136719 C 137.964844 155.171875 137.722656 166.972656 144.875 166.113281 C 147.769531 165.769531 149.40625 164.207031 150.339844 162.574219 C 152.097656 163.964844 154.5625 164.980469 157.507812 163.570312 C 163.574219 160.683594 159.265625 150.6875 159.25 150.652344 C 158.800781 149.554688 157.527344 149.023438 156.421875 149.46875 C 155.335938 149.914062 154.820312 151.167969 155.269531 152.285156 Z M 186.117188 148.488281 C 184.53125 152.613281 182.359375 160.667969 180.742188 168.929688 C 179.257812 176.433594 178.257812 184.027344 178.585938 188.820312 C 178.722656 190.914062 179.480469 192.355469 180.585938 193.285156 C 181.308594 193.902344 182.222656 194.316406 183.222656 194.574219 C 184.324219 194.847656 185.53125 194.917969 186.753906 194.847656 C 190.425781 194.589844 194.183594 192.957031 196.078125 190.742188 C 200.492188 185.539062 198.300781 176.660156 196.476562 170.871094 C 194.199219 163.65625 190.375 155.808594 186.117188 148.488281 Z M 215.914062 171.265625 C 215.449219 172.363281 214.175781 172.878906 213.070312 172.417969 C 211.96875 171.953125 211.453125 170.679688 211.917969 169.582031 C 211.917969 169.566406 214.261719 164.101562 220.671875 161.613281 C 221.792969 161.183594 223.050781 161.734375 223.480469 162.847656 C 223.914062 163.964844 223.359375 165.21875 222.242188 165.648438 C 221.191406 166.0625 220.292969 166.558594 219.535156 167.089844 C 220.3125 169.203125 222.480469 172.929688 225.273438 176.777344 C 227.808594 180.265625 230.804688 183.804688 233.734375 186.277344 C 235.011719 187.359375 236.546875 188.167969 238.234375 188.714844 L 238.320312 188.75 C 240.507812 189.453125 242.957031 189.710938 245.457031 189.59375 C 246.058594 189.558594 246.644531 189.507812 247.25 189.421875 C 247.300781 189.367188 247.351562 189.335938 247.402344 189.28125 C 251.695312 184.953125 253.382812 177.808594 254.039062 173.050781 C 243.027344 171.179688 243.027344 160.359375 244.007812 154.003906 C 237.234375 154.878906 231.273438 155.910156 231.253906 155.925781 C 230.082031 156.132812 228.945312 155.359375 228.738281 154.175781 C 228.53125 153.007812 229.308594 151.875 230.496094 151.667969 C 230.53125 151.667969 241.386719 149.761719 250.625 148.917969 C 250.023438 145.914062 248.714844 140.503906 246.316406 134.335938 C 244.59375 129.90625 240.734375 126.074219 235.546875 123.671875 C 230.582031 121.371094 224.445312 120.375 217.792969 121.335938 C 205.128906 123.207031 197.871094 139.851562 197.097656 141.671875 C 196.785156 142.667969 195.769531 143.320312 194.699219 143.164062 C 194.683594 143.164062 191.324219 142.632812 188.773438 144.472656 C 193.613281 152.542969 198.042969 161.421875 200.628906 169.546875 C 203.09375 177.328125 205.230469 186.65625 199.40625 193.523438 C 196.804688 196.582031 191.804688 198.832031 187.066406 199.160156 C 185.394531 199.277344 183.722656 199.160156 182.1875 198.765625 C 180.550781 198.351562 179.050781 197.648438 177.792969 196.582031 C 175.828125 194.933594 174.5 192.476562 174.261719 189.09375 C 173.898438 183.890625 174.933594 175.902344 176.484375 168.085938 C 178.449219 158.109375 181.273438 148.25 182.996094 144.796875 C 183.136719 144.523438 183.273438 144.265625 183.429688 144.007812 C 182.152344 141.964844 180.84375 139.972656 179.550781 138.097656 C 173.296875 128.996094 167.488281 122.296875 165.195312 121.457031 C 160.730469 123.363281 159.214844 136.140625 159.164062 136.585938 C 159.058594 137.53125 158.351562 138.320312 157.371094 138.492188 L 138.480469 141.722656 C 137.359375 141.929688 136.257812 141.257812 135.964844 140.160156 C 135.570312 138.699219 133.121094 135.300781 130.15625 133.167969 C 129.054688 132.378906 127.917969 131.796875 126.882812 131.65625 C 126.074219 131.539062 125.261719 131.726562 124.554688 132.34375 C 123.28125 133.476562 122.160156 135.867188 121.417969 140.074219 C 120.28125 146.515625 118.953125 156.253906 117.660156 166.609375 C 122.609375 167.96875 124.96875 169.824219 124.988281 169.839844 C 125.933594 170.578125 126.105469 171.933594 125.382812 172.878906 C 124.640625 173.824219 123.28125 173.996094 122.332031 173.273438 C 122.332031 173.273438 120.695312 171.988281 117.128906 170.921875 C 116.871094 173.050781 116.609375 175.214844 116.351562 177.34375 C 121.488281 178.222656 124.160156 180.625 124.175781 180.625 C 125.074219 181.417969 125.160156 182.789062 124.367188 183.683594 C 123.574219 184.578125 122.195312 184.664062 121.296875 183.871094 C 121.296875 183.871094 119.507812 182.257812 115.851562 181.605469 C 113.75 199.605469 114.335938 194.863281 114.320312 194.949219 C 114.199219 196.136719 113.128906 197.011719 111.941406 196.890625 C 110.75 196.769531 109.871094 195.707031 109.992188 194.519531 C 110.011719 194.433594 109.390625 199.3125 111.492188 181.398438 C 109.597656 181.519531 107.441406 181.898438 104.976562 182.6875 C 103.839844 183.046875 102.617188 182.429688 102.253906 181.296875 C 101.890625 180.164062 102.511719 178.941406 103.652344 178.566406 C 106.789062 177.550781 109.5625 177.140625 111.992188 177.070312 C 112.269531 174.71875 112.5625 172.363281 112.835938 170.011719 C 110.335938 169.632812 107.304688 169.425781 103.703125 169.617188 C 102.511719 169.667969 101.480469 168.757812 101.425781 167.554688 C 101.359375 166.371094 102.289062 165.339844 103.476562 165.289062 C 107.304688 165.082031 110.597656 165.304688 113.371094 165.734375 C 114.664062 155.429688 115.992188 145.757812 117.109375 139.351562 C 118.042969 134.097656 119.660156 130.886719 121.660156 129.132812 C 123.4375 127.570312 125.433594 127.105469 127.453125 127.398438 C 129.261719 127.65625 131.035156 128.515625 132.671875 129.699219 C 135.515625 131.742188 138.035156 134.902344 139.324219 137.222656 L 155.0625 134.542969 C 155.75 130.316406 158.113281 119.171875 164.160156 117.265625 C 164.679688 117.109375 165.230469 117.09375 165.832031 117.210938 C 168.988281 117.847656 176.085938 125.441406 183.136719 135.710938 C 184.257812 137.34375 185.394531 139.058594 186.515625 140.8125 C 189.03125 139.128906 191.890625 138.820312 193.667969 138.820312 C 195.871094 134.078125 203.835938 119.066406 217.191406 117.109375 C 224.707031 116.011719 231.71875 117.160156 237.40625 119.804688 C 243.59375 122.691406 248.246094 127.347656 250.386719 132.824219 C 253.023438 139.609375 254.402344 145.585938 255.003906 148.644531 L 255.296875 148.628906 C 256.554688 148.574219 257.949219 148.472656 259.242188 148.386719 C 260.914062 148.265625 262.449219 148.164062 263.984375 148.148438 C 270.03125 148.0625 273.6875 149.316406 273.789062 155.980469 C 273.859375 160.410156 272.632812 168.105469 269.996094 175.0625 C 268 180.335938 265.15625 185.28125 261.378906 188.234375 C 260.691406 188.785156 259.949219 189.28125 259.207031 189.765625 C 260.792969 191.566406 262.242188 194.640625 261.984375 199.863281 C 261.8125 203.144531 260.585938 205.324219 258.847656 206.628906 C 257.675781 207.507812 256.3125 207.953125 254.917969 208.054688 C 253.609375 208.140625 252.246094 207.917969 250.988281 207.4375 C 248.539062 206.492188 246.421875 204.535156 245.695312 202.0625 C 245.078125 199.898438 244.128906 198.28125 242.765625 196.910156 C 241.335938 195.484375 239.371094 194.230469 236.769531 192.855469 C 234.597656 192.132812 232.632812 191.070312 230.945312 189.660156 C 227.738281 186.945312 224.480469 183.132812 221.757812 179.371094 C 219.449219 176.195312 217.519531 173.015625 216.3125 170.578125 C 216.035156 170.972656 215.914062 171.265625 215.914062 171.265625 Z M 215.914062 171.265625 " fill-opacity="1" fill-rule="evenodd"/></g><path fill="#000000" d="M 128.347656 152.421875 C 129.949219 152.164062 131.671875 154.585938 132.191406 157.832031 C 132.707031 161.078125 131.847656 163.914062 130.242188 164.171875 C 128.640625 164.429688 126.917969 162.007812 126.398438 158.761719 C 125.867188 155.515625 126.746094 152.679688 128.347656 152.421875 Z M 128.347656 152.421875 " fill-opacity="1" fill-rule="evenodd"/><path fill="#000000" d="M 168.933594 146.050781 C 170.539062 145.792969 172.261719 148.214844 172.777344 151.460938 C 173.296875 154.707031 172.433594 157.542969 170.832031 157.800781 C 169.226562 158.058594 167.503906 155.636719 166.988281 152.390625 C 166.453125 149.144531 167.332031 146.308594 168.933594 146.050781 Z M 168.933594 146.050781 " fill-opacity="1" fill-rule="evenodd"/><g clip-path="url(#4dbaf51814)"><path fill="#d03531" d="M 114.570312 261.910156 L 116.632812 265.898438 L 120.761719 265.488281 L 117.664062 268.582031 L 118.902344 272.160156 L 115.71875 270.226562 L 112.304688 274.488281 L 112.988281 269.410156 L 109.136719 266.519531 L 113.746094 266.121094 Z M 114.570312 261.910156 " fill-opacity="1" fill-rule="nonzero"/></g><g fill="#000000" fill-opacity="1"><g transform="translate(48.587506, 248.465163)"><g><path d="M 6.9375 -12.09375 C 6.9375 -11.164062 6.9375 -10.347656 6.9375 -9.640625 C 6.9375 -8.929688 6.925781 -8.257812 6.90625 -7.625 C 6.894531 -6.988281 6.875 -6.351562 6.84375 -5.71875 C 6.820312 -5.082031 6.796875 -4.375 6.765625 -3.59375 C 8.753906 -3.820312 10.3125 -4.007812 11.4375 -4.15625 C 12.570312 -4.300781 13.460938 -4.414062 14.109375 -4.5 C 14.753906 -4.59375 15.257812 -4.648438 15.625 -4.671875 C 15.988281 -4.703125 16.414062 -4.71875 16.90625 -4.71875 C 18.175781 -4.71875 18.8125 -4.097656 18.8125 -2.859375 C 18.8125 -2.367188 18.554688 -1.945312 18.046875 -1.59375 C 17.546875 -1.25 16.910156 -0.953125 16.140625 -0.703125 C 15.378906 -0.460938 14.523438 -0.265625 13.578125 -0.109375 C 12.640625 0.046875 11.726562 0.160156 10.84375 0.234375 C 9.96875 0.304688 9.175781 0.359375 8.46875 0.390625 C 7.757812 0.421875 7.265625 0.4375 6.984375 0.4375 C 5.941406 0.4375 5.128906 0.367188 4.546875 0.234375 C 3.972656 0.109375 3.539062 -0.273438 3.25 -0.921875 C 2.957031 -1.578125 2.773438 -2.566406 2.703125 -3.890625 C 2.628906 -5.222656 2.59375 -7.101562 2.59375 -9.53125 C 2.59375 -11.875 2.59375 -13.953125 2.59375 -15.765625 C 2.59375 -17.585938 2.609375 -19.222656 2.640625 -20.671875 C 2.671875 -22.117188 2.691406 -23.40625 2.703125 -24.53125 C 2.722656 -25.65625 2.757812 -26.679688 2.8125 -27.609375 C 2.875 -28.796875 3.078125 -29.566406 3.421875 -29.921875 C 3.765625 -30.285156 4.195312 -30.46875 4.71875 -30.46875 C 5.007812 -30.46875 5.265625 -30.445312 5.484375 -30.40625 C 5.703125 -30.363281 5.894531 -30.238281 6.0625 -30.03125 C 6.238281 -29.832031 6.375 -29.546875 6.46875 -29.171875 C 6.570312 -28.796875 6.640625 -28.257812 6.671875 -27.5625 C 6.785156 -25.019531 6.859375 -22.503906 6.890625 -20.015625 C 6.921875 -17.535156 6.9375 -14.894531 6.9375 -12.09375 Z M 6.9375 -12.09375 "/></g></g></g><g fill="#000000" fill-opacity="1"><g transform="translate(68.260946, 248.465163)"><g><path d="M 14.21875 0.4375 C 12.476562 0.4375 10.847656 0.09375 9.328125 -0.59375 C 7.816406 -1.289062 6.5 -2.296875 5.375 -3.609375 C 4.25 -4.929688 3.359375 -6.546875 2.703125 -8.453125 C 2.054688 -10.359375 1.734375 -12.523438 1.734375 -14.953125 C 1.734375 -17.234375 2.015625 -19.328125 2.578125 -21.234375 C 3.140625 -23.140625 3.976562 -24.785156 5.09375 -26.171875 C 6.207031 -27.566406 7.585938 -28.644531 9.234375 -29.40625 C 10.878906 -30.175781 12.785156 -30.5625 14.953125 -30.5625 C 16.710938 -30.5625 18.382812 -30.242188 19.96875 -29.609375 C 21.5625 -28.972656 22.957031 -28.019531 24.15625 -26.75 C 25.363281 -25.476562 26.3125 -23.882812 27 -21.96875 C 27.695312 -20.0625 28.046875 -17.835938 28.046875 -15.296875 C 28.046875 -13.191406 27.765625 -11.1875 27.203125 -9.28125 C 26.640625 -7.375 25.785156 -5.703125 24.640625 -4.265625 C 23.492188 -2.835938 22.054688 -1.695312 20.328125 -0.84375 C 18.597656 0.0078125 16.5625 0.4375 14.21875 0.4375 Z M 14.296875 -3.640625 C 15.890625 -3.640625 17.273438 -3.960938 18.453125 -4.609375 C 19.640625 -5.265625 20.625 -6.125 21.40625 -7.1875 C 22.1875 -8.257812 22.765625 -9.492188 23.140625 -10.890625 C 23.515625 -12.296875 23.703125 -13.738281 23.703125 -15.21875 C 23.703125 -17.007812 23.460938 -18.601562 22.984375 -20 C 22.515625 -21.40625 21.875 -22.582031 21.0625 -23.53125 C 20.25 -24.488281 19.304688 -25.21875 18.234375 -25.71875 C 17.171875 -26.226562 16.035156 -26.484375 14.828125 -26.484375 C 13.378906 -26.484375 12.113281 -26.175781 11.03125 -25.5625 C 9.945312 -24.957031 9.035156 -24.132812 8.296875 -23.09375 C 7.554688 -22.0625 7 -20.84375 6.625 -19.4375 C 6.25 -18.039062 6.0625 -16.546875 6.0625 -14.953125 C 6.0625 -13.242188 6.28125 -11.6875 6.71875 -10.28125 C 7.15625 -8.882812 7.738281 -7.695312 8.46875 -6.71875 C 9.207031 -5.738281 10.082031 -4.976562 11.09375 -4.4375 C 12.101562 -3.90625 13.171875 -3.640625 14.296875 -3.640625 Z M 14.296875 -3.640625 "/></g></g></g><g fill="#000000" fill-opacity="1"><g transform="translate(98.031104, 248.465163)"><g><path d="M 13.171875 -30.59375 C 13.984375 -30.59375 14.914062 -30.523438 15.96875 -30.390625 C 17.019531 -30.265625 18.007812 -30.035156 18.9375 -29.703125 C 19.863281 -29.378906 20.644531 -28.945312 21.28125 -28.40625 C 21.914062 -27.875 22.234375 -27.21875 22.234375 -26.4375 C 22.234375 -25.976562 22.101562 -25.585938 21.84375 -25.265625 C 21.582031 -24.953125 21.164062 -24.796875 20.59375 -24.796875 C 20.15625 -24.796875 19.710938 -24.878906 19.265625 -25.046875 C 18.816406 -25.222656 18.3125 -25.40625 17.75 -25.59375 C 17.1875 -25.78125 16.535156 -25.957031 15.796875 -26.125 C 15.054688 -26.300781 14.195312 -26.390625 13.21875 -26.390625 C 11.3125 -26.390625 9.898438 -26.050781 8.984375 -25.375 C 8.078125 -24.695312 7.625 -23.765625 7.625 -22.578125 C 7.625 -21.773438 7.828125 -21.097656 8.234375 -20.546875 C 8.640625 -19.992188 9.179688 -19.519531 9.859375 -19.125 C 10.535156 -18.738281 11.300781 -18.414062 12.15625 -18.15625 C 13.007812 -17.894531 13.882812 -17.648438 14.78125 -17.421875 C 15.789062 -17.160156 16.789062 -16.84375 17.78125 -16.46875 C 18.78125 -16.09375 19.671875 -15.601562 20.453125 -15 C 21.234375 -14.394531 21.863281 -13.628906 22.34375 -12.703125 C 22.820312 -11.773438 23.0625 -10.601562 23.0625 -9.1875 C 23.0625 -7.71875 22.785156 -6.394531 22.234375 -5.21875 C 21.679688 -4.050781 20.925781 -3.054688 19.96875 -2.234375 C 19.019531 -1.410156 17.878906 -0.773438 16.546875 -0.328125 C 15.222656 0.117188 13.78125 0.34375 12.21875 0.34375 C 11.351562 0.34375 10.34375 0.265625 9.1875 0.109375 C 8.03125 -0.046875 6.929688 -0.316406 5.890625 -0.703125 C 4.847656 -1.097656 3.96875 -1.617188 3.25 -2.265625 C 2.53125 -2.921875 2.171875 -3.726562 2.171875 -4.6875 C 2.171875 -5.257812 2.320312 -5.71875 2.625 -6.0625 C 2.925781 -6.414062 3.378906 -6.59375 3.984375 -6.59375 C 4.472656 -6.59375 4.875 -6.5 5.1875 -6.3125 C 5.507812 -6.125 5.789062 -5.910156 6.03125 -5.671875 C 6.894531 -4.921875 7.875 -4.414062 8.96875 -4.15625 C 10.070312 -3.894531 11.203125 -3.765625 12.359375 -3.765625 C 13.015625 -3.765625 13.710938 -3.816406 14.453125 -3.921875 C 15.191406 -4.023438 15.863281 -4.234375 16.46875 -4.546875 C 17.070312 -4.867188 17.578125 -5.328125 17.984375 -5.921875 C 18.390625 -6.515625 18.59375 -7.316406 18.59375 -8.328125 C 18.59375 -9.242188 18.410156 -10 18.046875 -10.59375 C 17.691406 -11.1875 17.207031 -11.6875 16.59375 -12.09375 C 15.988281 -12.5 15.273438 -12.832031 14.453125 -13.09375 C 13.628906 -13.351562 12.742188 -13.613281 11.796875 -13.875 C 10.722656 -14.15625 9.664062 -14.46875 8.625 -14.8125 C 7.582031 -15.164062 6.65625 -15.640625 5.84375 -16.234375 C 5.039062 -16.828125 4.382812 -17.578125 3.875 -18.484375 C 3.375 -19.390625 3.125 -20.550781 3.125 -21.96875 C 3.125 -23.382812 3.382812 -24.628906 3.90625 -25.703125 C 4.425781 -26.773438 5.132812 -27.671875 6.03125 -28.390625 C 6.925781 -29.109375 7.984375 -29.65625 9.203125 -30.03125 C 10.429688 -30.40625 11.753906 -30.59375 13.171875 -30.59375 Z M 13.171875 -30.59375 "/></g></g></g><g fill="#000000" fill-opacity="1"><g transform="translate(123.251239, 248.465163)"><g><path d="M 19.46875 -26.359375 C 18.65625 -26.296875 17.789062 -26.25 16.875 -26.21875 C 15.96875 -26.1875 14.96875 -26.160156 13.875 -26.140625 C 13.894531 -25.359375 13.921875 -24.625 13.953125 -23.9375 C 13.984375 -23.257812 14.015625 -22.570312 14.046875 -21.875 C 14.078125 -21.1875 14.097656 -20.46875 14.109375 -19.71875 C 14.117188 -18.96875 14.125 -18.128906 14.125 -17.203125 C 14.125 -15.898438 14.125 -14.648438 14.125 -13.453125 C 14.125 -12.253906 14.109375 -11.054688 14.078125 -9.859375 C 14.054688 -8.660156 14.03125 -7.453125 14 -6.234375 C 13.96875 -5.023438 13.925781 -3.769531 13.875 -2.46875 C 13.84375 -1.78125 13.773438 -1.242188 13.671875 -0.859375 C 13.566406 -0.484375 13.425781 -0.195312 13.25 0 C 13.082031 0.195312 12.882812 0.316406 12.65625 0.359375 C 12.425781 0.410156 12.164062 0.4375 11.875 0.4375 C 11.351562 0.4375 10.910156 0.253906 10.546875 -0.109375 C 10.191406 -0.472656 9.984375 -1.242188 9.921875 -2.421875 C 9.867188 -3.460938 9.832031 -4.5625 9.8125 -5.71875 C 9.800781 -6.875 9.78125 -8.113281 9.75 -9.4375 C 9.71875 -10.769531 9.703125 -12.207031 9.703125 -13.75 C 9.703125 -15.300781 9.703125 -17.015625 9.703125 -18.890625 C 9.703125 -20.484375 9.707031 -21.875 9.71875 -23.0625 C 9.738281 -24.25 9.78125 -25.273438 9.84375 -26.140625 L 8.0625 -26.140625 C 6.84375 -26.140625 5.804688 -26.148438 4.953125 -26.171875 C 4.109375 -26.203125 3.410156 -26.28125 2.859375 -26.40625 C 2.304688 -26.539062 1.90625 -26.753906 1.65625 -27.046875 C 1.414062 -27.335938 1.296875 -27.742188 1.296875 -28.265625 C 1.296875 -28.523438 1.320312 -28.757812 1.375 -28.96875 C 1.4375 -29.1875 1.566406 -29.390625 1.765625 -29.578125 C 1.972656 -29.765625 2.257812 -29.914062 2.625 -30.03125 C 2.988281 -30.144531 3.457031 -30.234375 4.03125 -30.296875 C 4.582031 -30.328125 5.070312 -30.351562 5.5 -30.375 C 5.9375 -30.40625 6.367188 -30.4375 6.796875 -30.46875 C 7.234375 -30.5 7.679688 -30.515625 8.140625 -30.515625 C 8.609375 -30.515625 9.144531 -30.515625 9.75 -30.515625 C 11.457031 -30.515625 13.066406 -30.5 14.578125 -30.46875 C 16.097656 -30.4375 17.710938 -30.378906 19.421875 -30.296875 C 20.109375 -30.234375 20.640625 -30.148438 21.015625 -30.046875 C 21.390625 -29.953125 21.675781 -29.816406 21.875 -29.640625 C 22.082031 -29.472656 22.207031 -29.269531 22.25 -29.03125 C 22.300781 -28.800781 22.328125 -28.546875 22.328125 -28.265625 C 22.328125 -27.742188 22.144531 -27.304688 21.78125 -26.953125 C 21.414062 -26.609375 20.644531 -26.410156 19.46875 -26.359375 Z M 19.46875 -26.359375 "/></g></g></g><g fill="#000000" fill-opacity="1"><g transform="translate(146.868023, 248.465163)"><g/></g></g><g fill="#000000" fill-opacity="1"><g transform="translate(155.924734, 248.465163)"><g><path d="M 8.234375 -18.421875 C 7.453125 -19.546875 6.765625 -20.734375 6.171875 -21.984375 C 5.578125 -23.242188 5.28125 -24.628906 5.28125 -26.140625 C 5.28125 -27.234375 5.46875 -28.191406 5.84375 -29.015625 C 6.226562 -29.835938 6.75 -30.53125 7.40625 -31.09375 C 8.070312 -31.65625 8.859375 -32.082031 9.765625 -32.375 C 10.679688 -32.664062 11.660156 -32.8125 12.703125 -32.8125 C 14.023438 -32.8125 15.113281 -32.597656 15.96875 -32.171875 C 16.820312 -31.753906 17.488281 -31.207031 17.96875 -30.53125 C 18.445312 -29.851562 18.78125 -29.09375 18.96875 -28.25 C 19.15625 -27.414062 19.25 -26.597656 19.25 -25.796875 C 19.25 -24.773438 19.117188 -23.890625 18.859375 -23.140625 C 18.597656 -22.390625 18.234375 -21.710938 17.765625 -21.109375 C 17.304688 -20.503906 16.738281 -19.925781 16.0625 -19.375 C 15.382812 -18.820312 14.640625 -18.257812 13.828125 -17.6875 L 19.9375 -7.5 L 22.109375 -10.0625 C 22.273438 -10.289062 22.46875 -10.539062 22.6875 -10.8125 C 22.90625 -11.082031 23.132812 -11.34375 23.375 -11.59375 C 23.625 -11.84375 23.882812 -12.050781 24.15625 -12.21875 C 24.4375 -12.394531 24.75 -12.484375 25.09375 -12.484375 C 25.53125 -12.484375 25.925781 -12.332031 26.28125 -12.03125 C 26.644531 -11.726562 26.828125 -11.316406 26.828125 -10.796875 C 26.828125 -10.242188 26.640625 -9.742188 26.265625 -9.296875 C 25.890625 -8.847656 25.53125 -8.40625 25.1875 -7.96875 C 24.925781 -7.65625 24.484375 -7.128906 23.859375 -6.390625 C 23.234375 -5.648438 22.59375 -4.90625 21.9375 -4.15625 L 23.875 -1.078125 C 24.082031 -0.765625 24.25 -0.429688 24.375 -0.078125 C 24.507812 0.265625 24.578125 0.59375 24.578125 0.90625 C 24.578125 1.425781 24.378906 1.867188 23.984375 2.234375 C 23.597656 2.597656 23.203125 2.78125 22.796875 2.78125 C 22.484375 2.78125 22.148438 2.648438 21.796875 2.390625 C 21.453125 2.128906 21.035156 1.632812 20.546875 0.90625 L 19.03125 -1.296875 C 17.644531 -0.109375 16.28125 0.789062 14.9375 1.40625 C 13.59375 2.03125 12.125 2.34375 10.53125 2.34375 C 9.457031 2.34375 8.363281 2.179688 7.25 1.859375 C 6.144531 1.546875 5.144531 1.019531 4.25 0.28125 C 3.351562 -0.457031 2.613281 -1.410156 2.03125 -2.578125 C 1.457031 -3.742188 1.171875 -5.195312 1.171875 -6.9375 C 1.171875 -8.351562 1.363281 -9.625 1.75 -10.75 C 2.144531 -11.875 2.664062 -12.890625 3.3125 -13.796875 C 3.96875 -14.710938 4.71875 -15.546875 5.5625 -16.296875 C 6.414062 -17.046875 7.304688 -17.753906 8.234375 -18.421875 Z M 10.65625 -1.6875 C 11.925781 -1.6875 13.046875 -1.945312 14.015625 -2.46875 C 14.984375 -2.988281 15.960938 -3.65625 16.953125 -4.46875 C 15.816406 -6.195312 14.6875 -7.957031 13.5625 -9.75 C 12.4375 -11.539062 11.335938 -13.304688 10.265625 -15.046875 C 8.828125 -13.859375 7.613281 -12.628906 6.625 -11.359375 C 5.644531 -10.085938 5.15625 -8.597656 5.15625 -6.890625 C 5.15625 -5.941406 5.304688 -5.140625 5.609375 -4.484375 C 5.910156 -3.835938 6.320312 -3.300781 6.84375 -2.875 C 7.363281 -2.457031 7.957031 -2.15625 8.625 -1.96875 C 9.289062 -1.78125 9.96875 -1.6875 10.65625 -1.6875 Z M 9.625 -25.875 C 9.625 -25.207031 9.800781 -24.503906 10.15625 -23.765625 C 10.519531 -23.035156 11.09375 -22.0625 11.875 -20.84375 C 12.71875 -21.457031 13.460938 -22.222656 14.109375 -23.140625 C 14.753906 -24.066406 15.078125 -25.078125 15.078125 -26.171875 C 15.078125 -27.160156 14.8125 -27.914062 14.28125 -28.4375 C 13.75 -28.957031 13.132812 -29.21875 12.4375 -29.21875 C 11.570312 -29.21875 10.882812 -28.867188 10.375 -28.171875 C 9.875 -27.484375 9.625 -26.71875 9.625 -25.875 Z M 9.625 -25.875 "/></g></g></g><g fill="#000000" fill-opacity="1"><g transform="translate(183.484876, 248.465163)"><g/></g></g><g fill="#000000" fill-opacity="1"><g transform="translate(192.541587, 248.465163)"><g><path d="M 2.59375 -20.15625 C 2.59375 -22.582031 2.679688 -24.476562 2.859375 -25.84375 C 3.035156 -27.21875 3.394531 -28.253906 3.9375 -28.953125 C 4.488281 -29.648438 5.269531 -30.078125 6.28125 -30.234375 C 7.289062 -30.390625 8.617188 -30.46875 10.265625 -30.46875 C 11.191406 -30.46875 12.03125 -30.46875 12.78125 -30.46875 C 13.53125 -30.46875 14.257812 -30.457031 14.96875 -30.4375 C 15.675781 -30.425781 16.382812 -30.40625 17.09375 -30.375 C 17.800781 -30.351562 18.578125 -30.328125 19.421875 -30.296875 C 20.109375 -30.234375 20.640625 -30.148438 21.015625 -30.046875 C 21.390625 -29.953125 21.675781 -29.816406 21.875 -29.640625 C 22.082031 -29.472656 22.207031 -29.269531 22.25 -29.03125 C 22.300781 -28.800781 22.328125 -28.546875 22.328125 -28.265625 C 22.328125 -27.742188 22.144531 -27.304688 21.78125 -26.953125 C 21.414062 -26.609375 20.644531 -26.410156 19.46875 -26.359375 C 18.738281 -26.328125 18.035156 -26.296875 17.359375 -26.265625 C 16.679688 -26.234375 15.914062 -26.207031 15.0625 -26.1875 C 14.207031 -26.175781 13.242188 -26.164062 12.171875 -26.15625 C 11.109375 -26.144531 9.828125 -26.140625 8.328125 -26.140625 C 7.804688 -26.140625 7.441406 -25.957031 7.234375 -25.59375 C 7.035156 -25.226562 6.9375 -24.773438 6.9375 -24.234375 C 6.9375 -23.796875 6.941406 -23.359375 6.953125 -22.921875 C 6.972656 -22.492188 6.988281 -22.019531 7 -21.5 C 7.007812 -20.976562 7.019531 -20.390625 7.03125 -19.734375 C 7.050781 -19.085938 7.0625 -18.332031 7.0625 -17.46875 C 8.132812 -17.46875 9.066406 -17.457031 9.859375 -17.4375 C 10.648438 -17.425781 11.34375 -17.410156 11.9375 -17.390625 C 12.53125 -17.378906 13.054688 -17.359375 13.515625 -17.328125 C 13.984375 -17.304688 14.429688 -17.28125 14.859375 -17.25 C 16.046875 -17.195312 16.820312 -16.992188 17.1875 -16.640625 C 17.550781 -16.296875 17.734375 -15.863281 17.734375 -15.34375 C 17.734375 -15.050781 17.707031 -14.789062 17.65625 -14.5625 C 17.613281 -14.332031 17.488281 -14.128906 17.28125 -13.953125 C 17.082031 -13.785156 16.796875 -13.640625 16.421875 -13.515625 C 16.046875 -13.398438 15.515625 -13.316406 14.828125 -13.265625 C 14.359375 -13.234375 13.914062 -13.207031 13.5 -13.1875 C 13.082031 -13.175781 12.59375 -13.164062 12.03125 -13.15625 C 11.46875 -13.144531 10.796875 -13.140625 10.015625 -13.140625 C 9.234375 -13.140625 8.25 -13.140625 7.0625 -13.140625 C 7.03125 -11.398438 7.019531 -9.625 7.03125 -7.8125 C 7.050781 -6.007812 7.003906 -4.15625 6.890625 -2.25 C 6.835938 -1.125 6.644531 -0.4375 6.3125 -0.1875 C 5.976562 0.0507812 5.476562 0.171875 4.8125 0.171875 C 4.175781 0.171875 3.695312 0.0351562 3.375 -0.234375 C 3.0625 -0.515625 2.875 -1.171875 2.8125 -2.203125 C 2.757812 -3.128906 2.722656 -4.148438 2.703125 -5.265625 C 2.691406 -6.378906 2.671875 -7.648438 2.640625 -9.078125 C 2.609375 -10.503906 2.59375 -12.117188 2.59375 -13.921875 C 2.59375 -15.734375 2.59375 -17.8125 2.59375 -20.15625 Z M 2.59375 -20.15625 "/></g></g></g><g fill="#000000" fill-opacity="1"><g transform="translate(215.941713, 248.465163)"><g><path d="M 14.21875 0.4375 C 12.476562 0.4375 10.847656 0.09375 9.328125 -0.59375 C 7.816406 -1.289062 6.5 -2.296875 5.375 -3.609375 C 4.25 -4.929688 3.359375 -6.546875 2.703125 -8.453125 C 2.054688 -10.359375 1.734375 -12.523438 1.734375 -14.953125 C 1.734375 -17.234375 2.015625 -19.328125 2.578125 -21.234375 C 3.140625 -23.140625 3.976562 -24.785156 5.09375 -26.171875 C 6.207031 -27.566406 7.585938 -28.644531 9.234375 -29.40625 C 10.878906 -30.175781 12.785156 -30.5625 14.953125 -30.5625 C 16.710938 -30.5625 18.382812 -30.242188 19.96875 -29.609375 C 21.5625 -28.972656 22.957031 -28.019531 24.15625 -26.75 C 25.363281 -25.476562 26.3125 -23.882812 27 -21.96875 C 27.695312 -20.0625 28.046875 -17.835938 28.046875 -15.296875 C 28.046875 -13.191406 27.765625 -11.1875 27.203125 -9.28125 C 26.640625 -7.375 25.785156 -5.703125 24.640625 -4.265625 C 23.492188 -2.835938 22.054688 -1.695312 20.328125 -0.84375 C 18.597656 0.0078125 16.5625 0.4375 14.21875 0.4375 Z M 14.296875 -3.640625 C 15.890625 -3.640625 17.273438 -3.960938 18.453125 -4.609375 C 19.640625 -5.265625 20.625 -6.125 21.40625 -7.1875 C 22.1875 -8.257812 22.765625 -9.492188 23.140625 -10.890625 C 23.515625 -12.296875 23.703125 -13.738281 23.703125 -15.21875 C 23.703125 -17.007812 23.460938 -18.601562 22.984375 -20 C 22.515625 -21.40625 21.875 -22.582031 21.0625 -23.53125 C 20.25 -24.488281 19.304688 -25.21875 18.234375 -25.71875 C 17.171875 -26.226562 16.035156 -26.484375 14.828125 -26.484375 C 13.378906 -26.484375 12.113281 -26.175781 11.03125 -25.5625 C 9.945312 -24.957031 9.035156 -24.132812 8.296875 -23.09375 C 7.554688 -22.0625 7 -20.84375 6.625 -19.4375 C 6.25 -18.039062 6.0625 -16.546875 6.0625 -14.953125 C 6.0625 -13.242188 6.28125 -11.6875 6.71875 -10.28125 C 7.15625 -8.882812 7.738281 -7.695312 8.46875 -6.71875 C 9.207031 -5.738281 10.082031 -4.976562 11.09375 -4.4375 C 12.101562 -3.90625 13.171875 -3.640625 14.296875 -3.640625 Z M 14.296875 -3.640625 "/></g></g></g><g fill="#000000" fill-opacity="1"><g transform="translate(245.711871, 248.465163)"><g><path d="M 13.046875 0.734375 C 9.753906 0.734375 7.34375 -0.160156 5.8125 -1.953125 C 5.195312 -2.640625 4.679688 -3.523438 4.265625 -4.609375 C 3.847656 -5.691406 3.515625 -7.097656 3.265625 -8.828125 C 3.023438 -10.566406 2.851562 -12.710938 2.75 -15.265625 C 2.644531 -17.828125 2.59375 -20.945312 2.59375 -24.625 C 2.59375 -25.800781 2.625 -26.769531 2.6875 -27.53125 C 2.75 -28.300781 2.863281 -28.910156 3.03125 -29.359375 C 3.207031 -29.804688 3.429688 -30.117188 3.703125 -30.296875 C 3.984375 -30.472656 4.335938 -30.5625 4.765625 -30.5625 C 5.609375 -30.5625 6.203125 -30.179688 6.546875 -29.421875 C 6.890625 -28.671875 7.0625 -27.375 7.0625 -25.53125 C 7.0625 -24.894531 7.050781 -24.332031 7.03125 -23.84375 C 7.019531 -23.351562 7.015625 -22.851562 7.015625 -22.34375 C 7.015625 -21.832031 7.007812 -21.273438 7 -20.671875 C 6.988281 -20.066406 6.984375 -19.332031 6.984375 -18.46875 C 6.984375 -15.570312 7.078125 -13.171875 7.265625 -11.265625 C 7.453125 -9.359375 7.773438 -7.832031 8.234375 -6.6875 C 8.691406 -5.550781 9.316406 -4.75 10.109375 -4.28125 C 10.910156 -3.820312 11.90625 -3.59375 13.09375 -3.59375 C 14.332031 -3.59375 15.363281 -3.84375 16.1875 -4.34375 C 17.007812 -4.851562 17.664062 -5.707031 18.15625 -6.90625 C 18.644531 -8.113281 19 -9.710938 19.21875 -11.703125 C 19.4375 -13.691406 19.546875 -16.175781 19.546875 -19.15625 C 19.546875 -20.457031 19.535156 -21.566406 19.515625 -22.484375 C 19.503906 -23.410156 19.5 -24.253906 19.5 -25.015625 C 19.5 -26.078125 19.535156 -26.96875 19.609375 -27.6875 C 19.679688 -28.414062 19.796875 -28.988281 19.953125 -29.40625 C 20.117188 -29.820312 20.34375 -30.117188 20.625 -30.296875 C 20.914062 -30.472656 21.28125 -30.5625 21.71875 -30.5625 C 22.144531 -30.5625 22.503906 -30.472656 22.796875 -30.296875 C 23.085938 -30.117188 23.316406 -29.8125 23.484375 -29.375 C 23.660156 -28.945312 23.773438 -28.347656 23.828125 -27.578125 C 23.890625 -26.816406 23.921875 -25.832031 23.921875 -24.625 C 23.921875 -19.53125 23.757812 -15.34375 23.4375 -12.0625 C 23.125 -8.789062 22.5625 -6.207031 21.75 -4.3125 C 20.945312 -2.414062 19.84375 -1.097656 18.4375 -0.359375 C 17.039062 0.367188 15.242188 0.734375 13.046875 0.734375 Z M 13.046875 0.734375 "/></g></g></g><g fill="#000000" fill-opacity="1"><g transform="translate(272.232006, 248.465163)"><g><path d="M 19.765625 -2.03125 C 18.835938 -3.300781 17.960938 -4.566406 17.140625 -5.828125 C 16.316406 -7.085938 15.4375 -8.46875 14.5 -9.96875 C 13.5625 -11.46875 12.492188 -13.132812 11.296875 -14.96875 C 10.097656 -16.8125 8.660156 -18.957031 6.984375 -21.40625 C 6.984375 -19.238281 6.984375 -17.296875 6.984375 -15.578125 C 6.984375 -13.859375 6.96875 -12.257812 6.9375 -10.78125 C 6.90625 -9.3125 6.875 -7.925781 6.84375 -6.625 C 6.820312 -5.332031 6.78125 -4.035156 6.71875 -2.734375 C 6.6875 -2.035156 6.617188 -1.5 6.515625 -1.125 C 6.421875 -0.75 6.285156 -0.457031 6.109375 -0.25 C 5.929688 -0.0507812 5.734375 0.0664062 5.515625 0.109375 C 5.304688 0.148438 5.054688 0.171875 4.765625 0.171875 C 4.242188 0.171875 3.8125 -0.00390625 3.46875 -0.359375 C 3.125 -0.722656 2.921875 -1.5 2.859375 -2.6875 C 2.710938 -5.863281 2.628906 -9.046875 2.609375 -12.234375 C 2.597656 -15.429688 2.59375 -18.738281 2.59375 -22.15625 C 2.59375 -24.082031 2.613281 -25.59375 2.65625 -26.6875 C 2.707031 -27.789062 2.8125 -28.617188 2.96875 -29.171875 C 3.125 -29.722656 3.335938 -30.066406 3.609375 -30.203125 C 3.890625 -30.347656 4.257812 -30.421875 4.71875 -30.421875 C 5.1875 -30.421875 5.796875 -30.066406 6.546875 -29.359375 C 7.296875 -28.648438 8.117188 -27.71875 9.015625 -26.5625 C 9.910156 -25.414062 10.867188 -24.085938 11.890625 -22.578125 C 12.921875 -21.078125 13.941406 -19.53125 14.953125 -17.9375 C 15.960938 -16.351562 16.9375 -14.78125 17.875 -13.21875 C 18.8125 -11.65625 19.671875 -10.238281 20.453125 -8.96875 C 20.429688 -10.332031 20.421875 -11.828125 20.421875 -13.453125 C 20.421875 -15.085938 20.421875 -16.898438 20.421875 -18.890625 C 20.421875 -21.179688 20.429688 -23.066406 20.453125 -24.546875 C 20.484375 -26.035156 20.5625 -27.210938 20.6875 -28.078125 C 20.820312 -28.953125 21.035156 -29.5625 21.328125 -29.90625 C 21.617188 -30.25 22.019531 -30.421875 22.53125 -30.421875 C 23.03125 -30.421875 23.46875 -30.257812 23.84375 -29.9375 C 24.21875 -29.625 24.429688 -28.890625 24.484375 -27.734375 C 24.546875 -26.691406 24.585938 -25.765625 24.609375 -24.953125 C 24.640625 -24.148438 24.671875 -23.351562 24.703125 -22.5625 C 24.734375 -21.769531 24.75 -20.945312 24.75 -20.09375 C 24.75 -19.238281 24.75 -18.273438 24.75 -17.203125 C 24.75 -15.898438 24.75 -14.65625 24.75 -13.46875 C 24.75 -12.289062 24.734375 -11.125 24.703125 -9.96875 C 24.671875 -8.8125 24.640625 -7.640625 24.609375 -6.453125 C 24.585938 -5.273438 24.546875 -4.035156 24.484375 -2.734375 C 24.460938 -2.035156 24.398438 -1.5 24.296875 -1.125 C 24.191406 -0.75 24.050781 -0.457031 23.875 -0.25 C 23.707031 -0.0507812 23.515625 0.0664062 23.296875 0.109375 C 23.078125 0.148438 22.820312 0.171875 22.53125 0.171875 C 22.039062 0.171875 21.625 0.03125 21.28125 -0.25 C 20.9375 -0.539062 20.429688 -1.132812 19.765625 -2.03125 Z M 19.765625 -2.03125 "/></g></g></g><g fill="#000000" fill-opacity="1"><g transform="translate(299.575476, 248.465163)"><g><path d="M 11.484375 -30.640625 C 14.460938 -30.640625 16.847656 -30.191406 18.640625 -29.296875 C 20.429688 -28.398438 21.800781 -27.210938 22.75 -25.734375 C 23.707031 -24.265625 24.335938 -22.59375 24.640625 -20.71875 C 24.941406 -18.84375 25.09375 -16.9375 25.09375 -15 C 25.09375 -12.882812 24.828125 -10.890625 24.296875 -9.015625 C 23.765625 -7.140625 22.941406 -5.5 21.828125 -4.09375 C 20.710938 -2.695312 19.285156 -1.582031 17.546875 -0.75 C 15.816406 0.0703125 13.753906 0.484375 11.359375 0.484375 C 9.453125 0.484375 7.925781 0.34375 6.78125 0.0625 C 5.644531 -0.207031 4.765625 -0.617188 4.140625 -1.171875 C 3.515625 -1.722656 3.097656 -2.414062 2.890625 -3.25 C 2.691406 -4.082031 2.59375 -5.066406 2.59375 -6.203125 L 2.59375 -22.5 C 2.59375 -23.738281 2.703125 -24.863281 2.921875 -25.875 C 3.140625 -26.882812 3.566406 -27.742188 4.203125 -28.453125 C 4.835938 -29.160156 5.738281 -29.703125 6.90625 -30.078125 C 8.082031 -30.453125 9.609375 -30.640625 11.484375 -30.640625 Z M 11.65625 -3.859375 C 13.445312 -3.859375 14.925781 -4.179688 16.09375 -4.828125 C 17.269531 -5.484375 18.203125 -6.34375 18.890625 -7.40625 C 19.585938 -8.476562 20.070312 -9.691406 20.34375 -11.046875 C 20.625 -12.410156 20.765625 -13.800781 20.765625 -15.21875 C 20.765625 -16.519531 20.660156 -17.828125 20.453125 -19.140625 C 20.253906 -20.453125 19.835938 -21.640625 19.203125 -22.703125 C 18.566406 -23.773438 17.65625 -24.644531 16.46875 -25.3125 C 15.28125 -25.976562 13.707031 -26.3125 11.75 -26.3125 C 9.957031 -26.3125 8.710938 -26.050781 8.015625 -25.53125 C 7.328125 -25.007812 6.984375 -24.210938 6.984375 -23.140625 L 6.984375 -6.546875 C 6.984375 -5.648438 7.304688 -4.976562 7.953125 -4.53125 C 8.597656 -4.082031 9.832031 -3.859375 11.65625 -3.859375 Z M 11.65625 -3.859375 "/></g></g></g><g fill="#000000" fill-opacity="1"><g transform="translate(155.868242, 276.922121)"><g><path d="M 5.9375 -0.765625 C 5.9375 -0.253906 5.660156 0 5.109375 0 L 3.640625 0 C 3.347656 0 3.140625 -0.078125 3.015625 -0.234375 C 2.890625 -0.390625 2.828125 -0.566406 2.828125 -0.765625 L 2.828125 -17.890625 C 2.828125 -18.179688 2.90625 -18.4375 3.0625 -18.65625 C 3.21875 -18.875 3.46875 -18.984375 3.8125 -18.984375 L 8.71875 -18.984375 C 11.03125 -18.984375 12.820312 -18.429688 14.09375 -17.328125 C 15.414062 -16.179688 16.078125 -14.539062 16.078125 -12.40625 C 16.078125 -10.257812 15.332031 -8.539062 13.84375 -7.25 C 12.425781 -6.019531 10.628906 -5.40625 8.453125 -5.40625 C 7.765625 -5.40625 6.925781 -5.46875 5.9375 -5.59375 Z M 5.9375 -8.203125 L 6.9375 -8.078125 C 7.226562 -8.046875 7.628906 -8.03125 8.140625 -8.03125 C 8.660156 -8.03125 9.21875 -8.109375 9.8125 -8.265625 C 10.40625 -8.421875 10.921875 -8.675781 11.359375 -9.03125 C 12.347656 -9.78125 12.84375 -10.898438 12.84375 -12.390625 C 12.84375 -14.285156 12.003906 -15.503906 10.328125 -16.046875 C 9.804688 -16.210938 9.222656 -16.296875 8.578125 -16.296875 L 5.9375 -16.296875 Z M 5.9375 -8.203125 "/></g></g></g><g fill="#000000" fill-opacity="1"><g transform="translate(172.70782, 276.922121)"><g><path d="M 2.890625 -18.1875 C 2.890625 -18.40625 2.957031 -18.59375 3.09375 -18.75 C 3.238281 -18.90625 3.40625 -18.984375 3.59375 -18.984375 L 14.46875 -18.984375 C 14.6875 -18.984375 14.847656 -18.914062 14.953125 -18.78125 C 15.066406 -18.644531 15.125 -18.476562 15.125 -18.28125 L 15.125 -16.9375 C 15.125 -16.75 15.066406 -16.585938 14.953125 -16.453125 C 14.847656 -16.316406 14.6875 -16.25 14.46875 -16.25 L 6 -16.25 L 6 -10.828125 L 12.734375 -10.828125 C 12.953125 -10.828125 13.113281 -10.753906 13.21875 -10.609375 C 13.332031 -10.472656 13.390625 -10.304688 13.390625 -10.109375 L 13.390625 -8.78125 C 13.390625 -8.59375 13.332031 -8.425781 13.21875 -8.28125 C 13.113281 -8.144531 12.953125 -8.078125 12.734375 -8.078125 L 6 -8.078125 L 6 -2.734375 L 14.53125 -2.734375 C 14.75 -2.734375 14.910156 -2.664062 15.015625 -2.53125 C 15.128906 -2.394531 15.1875 -2.226562 15.1875 -2.03125 L 15.1875 -0.6875 C 15.1875 -0.5 15.128906 -0.335938 15.015625 -0.203125 C 14.910156 -0.0664062 14.75 0 14.53125 0 L 3.578125 0 C 3.390625 0 3.226562 -0.078125 3.09375 -0.234375 C 2.957031 -0.390625 2.890625 -0.578125 2.890625 -0.796875 Z M 2.890625 -18.1875 "/></g></g></g><g fill="#000000" fill-opacity="1"><g transform="translate(189.572163, 276.922121)"><g><path d="M 5.796875 -16.28125 L 1.328125 -16.28125 C 1.109375 -16.28125 0.921875 -16.347656 0.765625 -16.484375 C 0.617188 -16.617188 0.546875 -16.785156 0.546875 -16.984375 L 0.546875 -18.28125 C 0.546875 -18.476562 0.617188 -18.644531 0.765625 -18.78125 C 0.921875 -18.914062 1.109375 -18.984375 1.328125 -18.984375 L 13.5625 -18.984375 C 13.769531 -18.984375 13.929688 -18.914062 14.046875 -18.78125 C 14.160156 -18.644531 14.21875 -18.476562 14.21875 -18.28125 L 14.21875 -16.96875 C 14.21875 -16.78125 14.160156 -16.617188 14.046875 -16.484375 C 13.929688 -16.347656 13.765625 -16.28125 13.546875 -16.28125 L 8.921875 -16.28125 L 8.921875 -0.796875 C 8.921875 -0.578125 8.847656 -0.390625 8.703125 -0.234375 C 8.566406 -0.078125 8.40625 0 8.21875 0 L 6.46875 0 C 6.28125 0 6.117188 -0.078125 5.984375 -0.234375 C 5.859375 -0.390625 5.796875 -0.578125 5.796875 -0.796875 Z M 5.796875 -16.28125 "/></g></g></g><g fill="#000000" fill-opacity="1"><g transform="translate(204.331558, 276.922121)"><g><path d="M 1.359375 -1.953125 C 1.359375 -2.242188 1.476562 -2.59375 1.71875 -3 C 1.957031 -3.40625 2.117188 -3.648438 2.203125 -3.734375 C 2.367188 -3.929688 2.535156 -4.03125 2.703125 -4.03125 C 2.867188 -4.03125 3.046875 -3.976562 3.234375 -3.875 C 3.429688 -3.769531 3.6875 -3.632812 4 -3.46875 C 4.320312 -3.3125 4.664062 -3.160156 5.03125 -3.015625 C 5.832031 -2.710938 6.535156 -2.5625 7.140625 -2.5625 C 7.753906 -2.5625 8.25 -2.613281 8.625 -2.71875 C 9.007812 -2.832031 9.335938 -2.992188 9.609375 -3.203125 C 10.171875 -3.660156 10.453125 -4.296875 10.453125 -5.109375 C 10.453125 -6.140625 9.671875 -7.019531 8.109375 -7.75 C 7.660156 -7.957031 7.15625 -8.164062 6.59375 -8.375 C 6.039062 -8.582031 5.457031 -8.863281 4.84375 -9.21875 C 4.226562 -9.570312 3.675781 -9.988281 3.1875 -10.46875 C 2.113281 -11.539062 1.578125 -12.804688 1.578125 -14.265625 C 1.578125 -15.804688 2.207031 -17.046875 3.46875 -17.984375 C 4.644531 -18.859375 6.035156 -19.296875 7.640625 -19.296875 C 9.421875 -19.296875 10.882812 -18.90625 12.03125 -18.125 C 12.664062 -17.71875 12.984375 -17.332031 12.984375 -16.96875 C 12.984375 -16.78125 12.867188 -16.472656 12.640625 -16.046875 C 12.421875 -15.628906 12.242188 -15.347656 12.109375 -15.203125 C 11.972656 -15.054688 11.84375 -14.984375 11.71875 -14.984375 C 11.519531 -14.984375 11.25 -15.09375 10.90625 -15.3125 C 10.570312 -15.539062 10.097656 -15.785156 9.484375 -16.046875 C 8.867188 -16.304688 8.28125 -16.4375 7.71875 -16.4375 C 7.164062 -16.4375 6.722656 -16.390625 6.390625 -16.296875 C 6.054688 -16.210938 5.765625 -16.082031 5.515625 -15.90625 C 5.003906 -15.507812 4.75 -14.941406 4.75 -14.203125 C 4.75 -13.128906 5.484375 -12.28125 6.953125 -11.65625 L 8.15625 -11.15625 C 9.769531 -10.539062 10.992188 -9.851562 11.828125 -9.09375 C 12.972656 -8.0625 13.546875 -6.789062 13.546875 -5.28125 C 13.546875 -3.59375 12.910156 -2.21875 11.640625 -1.15625 C 10.460938 -0.175781 9.085938 0.3125 7.515625 0.3125 C 5.492188 0.3125 3.773438 -0.101562 2.359375 -0.9375 C 1.691406 -1.320312 1.359375 -1.660156 1.359375 -1.953125 Z M 1.359375 -1.953125 "/></g></g></g><g fill="#000000" fill-opacity="1"><g transform="translate(219.121839, 276.922121)"><g/></g></g><g clip-path="url(#be039c6afc)"><path fill="#d03531" d="M 259.414062 261.910156 L 261.476562 265.898438 L 265.605469 265.488281 L 262.507812 268.582031 L 263.746094 272.160156 L 260.5625 270.226562 L 257.148438 274.488281 L 257.832031 269.410156 L 253.980469 266.519531 L 258.589844 266.121094 Z M 259.414062 261.910156 " fill-opacity="1" fill-rule="nonzero"/></g></svg>